<svg width="16" height="16" viewBox="0 0 16 16" fill="none" xmlns="http://www.w3.org/2000/svg">
<g clip-path="url(#clip0_2_2)">
<path d="M3.594 13.8C3.2264 12.984 1.042 7.8476 1 1H13.3988C13.3904 2.3608 13.296 3.75 13.1176 5.1328L13.0916 5.3368L13.2964 5.3572C14.7236 5.5004 15.7996 6.692 15.7996 8.1284C15.7996 9.6644 14.55 10.914 13.014 10.914H11.87L11.826 11.0544C11.3688 12.5124 10.9488 13.4828 10.8052 13.8H3.594ZM12.8728 6.7424C12.7128 7.6488 12.5156 8.5548 12.2876 9.4356L12.2228 9.6856H13.0136C13.872 9.6856 14.5708 8.9868 14.5708 8.1284C14.5708 7.2936 13.9152 6.612 13.0784 6.5772L12.9032 6.57L12.8728 6.7424Z" fill="white"/>
<path d="M12.7976 0.799994C12.7816 2.08759 12.6884 3.39999 12.52 4.70679L12.4676 5.11479L12.8768 5.15599C14.2012 5.28919 15.2 6.39519 15.2 7.72839C15.2 9.15399 14.04 10.314 12.6144 10.314H11.6172H11.3236L11.2356 10.5944C10.8284 11.8936 10.4508 12.8016 10.276 13.1996H3.32479C2.84999 12.1152 0.881594 7.23759 0.802394 0.799994H12.7976ZM11.5652 9.48559H12.082H12.6144C13.5832 9.48559 14.3716 8.69719 14.3716 7.72839C14.3716 6.78559 13.6316 6.01639 12.6872 5.97719L12.3376 5.96279L12.2768 6.30759C12.118 7.20719 11.9224 8.10799 11.6948 8.98559L11.5652 9.48559ZM13.2 0.399994H0.399994C0.399994 8.08039 3.06679 13.6 3.06679 13.6H10.5336C10.5336 13.6 11.0436 12.5444 11.6176 10.7144H12.6148C14.2636 10.7144 15.6004 9.37759 15.6004 7.72879C15.6004 6.18199 14.424 4.90999 12.9172 4.75839C13.09 3.41119 13.2 1.95079 13.2 0.399994ZM12.082 9.08559C12.2928 8.27159 12.4964 7.36479 12.6704 6.37679C13.3932 6.40679 13.9712 6.99799 13.9712 7.72839C13.9712 8.47799 13.3636 9.08559 12.614 9.08559H12.082Z" fill="#66798F"/>
<path d="M2.80001 15.4C2.57841 15.4 2.37601 15.276 2.27121 15.076L2.22441 14.9868L2.12441 14.9712C1.30801 14.8452 0.698809 14.1992 0.610809 13.3996H12.9888C12.9008 14.1992 12.2916 14.8448 11.4752 14.9712L11.3752 14.9868L11.3284 15.076C11.224 15.276 11.0216 15.4 10.8 15.4H2.80001Z" fill="#F5CE85"/>
<path d="M12.7496 13.6C12.5944 14.2052 12.0928 14.6736 11.4444 14.774L11.2452 14.8048L11.1516 14.9836C11.0816 15.1168 10.9468 15.2 10.8 15.2H2.79999C2.65319 15.2 2.51839 15.1168 2.44839 14.9832L2.35479 14.8044L2.15559 14.7736C1.50719 14.6736 1.00559 14.2052 0.850394 13.6H12.7496ZM13.2 13.2H0.399994C0.399994 14.2 1.13599 15.0212 2.09439 15.1692C2.22799 15.424 2.49199 15.6 2.79999 15.6H10.8C11.108 15.6 11.372 15.424 11.5056 15.1692C12.464 15.0212 13.2 14.2 13.2 13.2Z" fill="#967A44"/>
<path d="M12.6396 3.6C12.69 3.0792 12.7336 2.5488 12.7604 2H0.839203C0.866003 2.5488 0.909603 3.0792 0.960003 3.6H12.6396Z" fill="#F5CE85"/>
<path d="M7.69356 5.00026C7.55939 4.99408 7.4364 5.10043 7.40246 5.25853L6.04489 11.5823C6.0061 11.7629 6.10318 11.9436 6.25833 11.9888C6.27773 12 6.30674 12 6.32614 12C6.4522 12 6.5783 11.8983 6.60739 11.7402L7.96496 5.41644C8.00375 5.23576 7.90667 5.05513 7.75152 5.00996C7.73212 5.00431 7.71273 5.00114 7.69356 5.00026ZM9.33826 6.68132C9.26432 6.68415 9.19159 6.72085 9.13826 6.79425C9.03159 6.92976 9.03152 7.14422 9.15758 7.26844L10.2826 8.49936L9.14792 9.73027C9.03155 9.85449 9.02193 10.069 9.1286 10.2045C9.18678 10.2722 9.26428 10.3174 9.34186 10.3174C9.40974 10.3174 9.48731 10.2836 9.5358 10.2272L10.903 8.7477C10.9612 8.67995 11 8.58969 11 8.49936C11 8.40902 10.9709 8.31877 10.903 8.25101L9.54545 6.77153C9.48727 6.70942 9.4122 6.6785 9.33826 6.68132ZM4.68125 6.68551C4.60731 6.68128 4.53223 6.70942 4.47405 6.77153L3.09697 8.25101C3.03879 8.31877 3 8.40902 3 8.49936C3 8.58969 3.02909 8.67995 3.09697 8.7477L4.46439 10.2272C4.52258 10.2836 4.59045 10.3174 4.65833 10.3174C4.73591 10.3174 4.81341 10.2835 4.87159 10.2045C4.97826 10.069 4.97833 9.85449 4.85227 9.73027L3.72727 8.49936L4.86193 7.26844C4.9783 7.14422 4.98792 6.92976 4.88125 6.79425C4.82792 6.72649 4.75519 6.68975 4.68125 6.68551Z" fill="#F5CE85"/>
</g>
<defs>
<clipPath id="clip0_2_2">
<rect width="16" height="16" fill="white"/>
</clipPath>
</defs>
</svg>
